<?xml version="1.0" encoding="UTF-8" standalone="no"?>
<!-- Created with Inkscape (http://www.inkscape.org/) -->

<svg
   version="1.1"
   id="svg878"
   width="400"
   height="400"
   viewBox="0 0 400 400"
   sodipodi:docname="bsdfang.svg"
   inkscape:version="1.1 (c68e22c387, 2021-05-23)"
   xmlns:inkscape="http://www.inkscape.org/namespaces/inkscape"
   xmlns:sodipodi="http://sodipodi.sourceforge.net/DTD/sodipodi-0.dtd"
   xmlns="http://www.w3.org/2000/svg"
   xmlns:svg="http://www.w3.org/2000/svg">
  <defs
     id="defs882" />
  <sodipodi:namedview
     id="namedview880"
     pagecolor="#ffffff"
     bordercolor="#666666"
     borderopacity="1.0"
     inkscape:pageshadow="2"
     inkscape:pageopacity="0.0"
     inkscape:pagecheckerboard="0"
     showgrid="false"
     width="400px"
     inkscape:zoom="0.21201657"
     inkscape:cx="40.091205"
     inkscape:cy="1448"
     inkscape:window-width="1600"
     inkscape:window-height="822"
     inkscape:window-x="-8"
     inkscape:window-y="-8"
     inkscape:window-maximized="1"
     inkscape:current-layer="g884" />
  <g
     inkscape:groupmode="layer"
     inkscape:label="Image"
     id="g884">
    <path
       style="fill:#020202;stroke-width:0.197812"
       d="m 174.25069,399.89873 c -1.45851,-0.0888 -2.79034,-0.21362 -2.95963,-0.27738 -0.16927,-0.0638 -1.72582,-0.20429 -3.459,-0.3123 -1.73317,-0.10798 -3.60499,-0.28082 -4.15959,-0.38407 -0.55461,-0.10324 -1.98253,-0.28221 -3.17316,-0.39771 -3.6339,-0.3525 -12.60537,-1.93613 -17.83781,-3.14872 -0.9334,-0.21631 -2.326,-0.52871 -3.09467,-0.69424 -0.76868,-0.16551 -2.47574,-0.60338 -3.79347,-0.973 -1.31773,-0.36963 -3.06971,-0.86147 -3.89329,-1.09297 -2.60611,-0.73257 -10.3934,-3.30465 -12.72808,-4.20399 -1.23537,-0.47587 -3.25689,-1.25708 -4.49226,-1.73599 -7.4248,-2.8784 -16.780434,-7.46648 -25.353635,-12.43361 -2.725757,-1.57924 -8.180759,-5.09567 -11.532819,-7.43435 -8.138936,-5.67842 -15.462408,-11.71111 -22.635456,-18.64593 -8.55433,-8.27023 -14.249645,-14.78965 -21.013982,-24.05466 -2.294082,-3.14216 -3.178727,-4.42966 -6.168155,-8.97695 -4.68774,-7.13064 -11.635355,-20.50176 -14.663982,-28.22177 -0.253725,-0.64675 -0.578672,-1.44049 -0.722103,-1.76386 -0.678427,-1.52956 -1.761462,-4.47513 -3.0265284,-8.23135 -1.3279367,-3.94289 -1.7361436,-5.23551 -2.6465354,-8.38035 -0.2259069,-0.78039 -0.5352341,-1.81574 -0.687394,-2.3008 -0.2558713,-0.81567 -0.4954166,-1.761 -1.5147049,-5.97753 -0.9923407,-4.10505 -1.3337566,-5.79381 -2.080157,-10.28918 -0.1521279,-0.91623 -0.3660814,-2.06274 -0.475455,-2.5478 -0.1093716,-0.48506 -0.2566239,-1.45519 -0.3272243,-2.15583 -0.070602,-0.70065 -0.2584069,-2.15583 -0.4173431,-3.23375 -1.10445962,-7.49046 -1.62123349,-19.07816 -1.30011461,-29.15269 0.18695597,-5.86536 0.73023817,-13.0125 1.21787421,-16.02173 0.1135384,-0.70064 0.3333338,-2.28811 0.4884367,-3.52771 0.1551028,-1.2396 0.5139447,-3.48853 0.7974264,-4.99761 0.2834797,-1.50908 0.6022426,-3.31703 0.7083618,-4.01768 0.1061192,-0.70064 0.3223847,-1.80306 0.4805922,-2.4498 0.1582055,-0.64675 0.4679619,-1.92555 0.6883463,-2.84178 1.0883953,-4.52489 1.5637365,-6.31431 2.7332421,-10.28918 2.4359221,-8.27915 4.795003,-14.61076 8.616506,-23.12617 9.560193,-21.30283 24.086598,-41.4548 41.588317,-57.69398 1.814567,-1.683663 4.285311,-3.894309 5.490543,-4.912527 1.20523,-1.018218 2.775321,-2.348502 3.489092,-2.956171 7.672836,-6.53232 22.110471,-16.024181 31.745319,-20.870578 7.051292,-3.546851 14.094202,-6.75261 17.669552,-8.04276 0.9883,-0.356623 2.3809,-0.881783 3.09467,-1.167025 1.51669,-0.606109 2.06916,-0.798304 6.98797,-2.431013 4.12255,-1.368407 11.42649,-3.448494 14.47506,-4.122347 1.09811,-0.242727 2.6704,-0.597438 3.49398,-0.788246 6.79314,-1.57385 18.0452,-3.251653 25.05684,-3.736244 1.64717,-0.11384 3.8933,-0.287903 4.99141,-0.386811 2.61749,-0.235756 17.09605,-0.233706 20.16526,0.0029 1.31773,0.101565 4.19701,0.314961 6.39837,0.474212 2.20139,0.159253 4.4026,0.375109 4.89157,0.47968 0.489,0.104574 1.51799,0.249545 2.28667,0.322161 3.19531,0.301858 13.93411,2.135822 16.67128,2.847104 0.38434,0.09987 1.68709,0.405594 2.89501,0.679377 2.88787,0.65455 5.11443,1.216495 6.58865,1.662855 0.65887,0.199489 1.87178,0.555307 2.69536,0.790706 6.47467,1.850609 18.53543,6.191289 19.63814,7.06777 0.56796,0.451462 0.18212,0.889676 -0.93188,1.058311 -2.16551,0.327813 -4.68884,1.518901 -6.14975,2.902857 -3.5257,3.339985 -4.80522,8.494912 -3.8623,15.560564 0.36193,2.712073 0.4841,3.165895 2.31121,8.584356 1.14627,3.399312 1.81741,4.968501 3.85586,9.015286 1.35743,2.694787 2.99381,5.715241 3.63644,6.712116 4.3161,6.695337 5.23315,8.063857 6.43264,9.599517 5.58206,7.14653 7.26375,9.14158 11.5179,13.66398 2.64151,2.80809 5.87093,6.07574 7.17646,7.26145 1.30555,1.1857 3.59163,3.26494 5.08023,4.62053 2.52728,2.30148 5.49867,4.65096 11.6195,9.18751 1.38821,1.0289 2.78081,2.01498 3.09467,2.19129 0.31386,0.1763 2.36756,1.44573 4.56378,2.82092 6.04477,3.78501 12.28738,6.76893 18.3684,8.77997 6.44931,2.13284 7.70531,2.36992 12.5783,2.37437 3.17613,0.003 4.25189,-0.0658 5.25788,-0.33582 3.15375,-0.84652 5.97521,-2.58488 7.49595,-4.61845 1.05865,-1.41566 1.99836,-3.603 2.41348,-5.61786 0.53554,-2.59932 0.82097,-2.81979 1.58573,-1.2249 1.03574,2.16002 2.7882,6.19967 3.46459,7.98636 0.38767,1.02402 0.92441,2.43511 1.19277,3.13576 0.76266,1.99114 2.94407,8.3377 3.53655,10.28918 0.29453,0.97012 0.6236,1.97541 0.73126,2.23395 0.10765,0.25856 0.31811,0.96411 0.46769,1.56788 0.14956,0.60378 0.69131,2.68526 1.20389,4.6255 1.00698,3.81178 1.60148,6.3753 1.90891,8.23135 0.10713,0.64675 0.32404,1.70507 0.48203,2.35182 0.75288,3.08222 1.75078,9.94464 2.39391,16.46268 1.10828,11.23233 0.99483,25.68896 -0.29143,37.13906 -0.22402,1.99415 -0.44671,3.75801 -0.49489,3.91969 -0.0482,0.16169 -0.18137,1.08772 -0.29601,2.05784 -0.11464,0.97012 -0.38747,2.71194 -0.60626,3.87069 -0.2188,1.15876 -0.58054,3.09901 -0.80389,4.31166 -0.22334,1.21266 -0.53398,2.73399 -0.69033,3.38073 -0.26367,1.09076 -0.51052,2.14237 -1.40315,5.97753 -0.62997,2.7067 -2.88826,10.2485 -4.28398,14.30687 -1.28121,3.72545 -4.60273,12.14051 -5.68574,14.40486 -0.25778,0.53896 -0.89019,1.90595 -1.40534,3.03776 -0.51516,1.13181 -1.59368,3.33663 -2.39673,4.89961 -0.80304,1.56298 -1.7548,3.41503 -2.11502,4.11567 -2.62885,5.11318 -8.72835,14.78842 -12.89132,20.44871 -12.27479,16.68969 -26.63508,30.7688 -43.27032,42.42308 -3.27548,2.29472 -4.76571,3.2739 -9.35008,6.14354 -2.14758,1.3443 -8.53162,4.95821 -10.93856,6.19213 -2.91482,1.4943 -7.93487,3.97027 -8.04975,3.97027 -0.0524,0 -1.1152,0.47301 -2.36183,1.05115 -3.17899,1.47427 -5.59399,2.45662 -11.55059,4.69843 -3.18337,1.19809 -9.6604,3.32807 -12.27885,4.03795 -3.12541,0.84732 -4.40551,1.1994 -5.39071,1.48276 -0.54906,0.15792 -2.0315,0.51405 -3.29433,0.7914 -1.26282,0.27736 -3.0148,0.67311 -3.89329,0.87944 -1.44168,0.33859 -2.62877,0.57102 -7.4871,1.46593 -2.53051,0.46611 -6.38822,1.04011 -8.48539,1.26255 -1.09811,0.11649 -2.49071,0.29684 -3.09467,0.40081 -0.60396,0.10397 -2.49071,0.27984 -4.19278,0.39083 -1.70205,0.11101 -3.5888,0.29116 -4.19276,0.40034 -1.40892,0.25472 -18.63157,0.40394 -22.1183,0.19165 z m -16.68059,-28.5206 c 4.70571,-0.37086 6.27812,-0.56201 10.64738,-1.29434 20.88205,-3.50013 40.26014,-13.13543 53.61567,-26.65918 2.22204,-2.25002 5.47909,-6.28944 9.36961,-11.62024 10.01247,-13.71913 16.96453,-27.91585 21.26417,-43.4234 1.06191,-3.82998 1.74847,-6.97763 1.56191,-7.16078 -0.0677,-0.0665 -1.18686,0.57794 -2.48698,1.43202 -3.34476,2.19722 -5.10634,3.21595 -8.75284,5.06181 -11.09577,5.6167 -23.39395,8.98793 -36.46892,9.99705 -4.08151,0.31501 -4.18999,0.3134 -7.19728,-0.1056 -3.40581,-0.47451 -9.16058,-1.67968 -12.2233,-2.55981 -11.57127,-3.32523 -22.018,-8.49708 -44.33785,-21.95028 -16.72952,-10.08366 -25.22671,-14.70242 -35.43895,-19.26329 -4.85956,-2.17034 -9.368774,-3.87119 -15.972485,-6.02472 -7.382806,-2.40762 -19.806222,-5.50854 -20.264982,-5.05823 -0.06017,0.0591 -1.752408,5.69821 -3.760527,12.53143 -2.041827,6.94792 -3.750122,12.42404 -3.875724,12.42404 -0.123531,0 -4.014862,-5.51206 -8.647403,-12.24903 -10.067129,-14.64031 -9.3166,-13.61494 -9.725809,-13.28757 -0.175043,0.14003 -1.026175,1.31292 -1.891404,2.60642 -3.875499,5.79379 -6.402869,12.65977 -7.466683,20.28439 -0.416375,2.98428 -0.473906,10.2348 -0.10652,13.42494 2.796944,24.28698 18.272318,48.93462 42.732733,68.06047 2.697264,2.10903 9.205813,6.57099 12.798367,8.77397 10.457407,6.41261 22.226927,11.52367 33.640657,14.60892 3.24405,0.87691 3.94496,0.99634 7.38727,1.25881 5.38962,0.41092 5.37421,0.41043 14.01983,0.45139 5.50047,0.0261 8.93611,-0.0508 11.58006,-0.25919 z m 47.64041,-119.6186 c 1.90677,-0.49933 4.5032,-1.67579 6.33125,-2.86872 5.15245,-3.36235 9.51407,-9.82663 11.25188,-16.67619 0.90937,-3.58426 1.02855,-4.67229 1.01775,-9.29246 -0.009,-4.00753 -0.0588,-4.63409 -0.54247,-6.87091 -1.35059,-6.24655 -4.16141,-11.69217 -8.02234,-15.54231 -11.12112,-11.08999 -27.41022,-7.60864 -34.86733,7.45194 -2.239,4.52195 -3.18645,8.56111 -3.32643,14.18142 -0.10153,4.07549 0.15659,6.71883 0.9599,9.83042 2.71247,10.50669 9.9976,18.24433 18.88192,20.0548 1.97484,0.40243 6.28626,0.26348 8.31587,-0.26799 z M 36.843777,212.51087 c 8.021876,-2.10585 15.753133,-11.66001 18.535653,-22.90607 1.041296,-4.20859 1.312844,-6.38356 1.309087,-10.48517 -0.0049,-5.31988 -0.739726,-8.9805 -2.562123,-12.76302 -1.181383,-2.45206 -2.213995,-3.88155 -3.957278,-5.47825 -4.168142,-3.81768 -9.416248,-4.37726 -15.022416,-1.60174 -6.891244,3.41171 -12.872922,11.93184 -15.361512,21.88047 -1.844733,7.37468 -1.726435,15.06165 0.319416,20.75549 2.306575,6.41947 6.30728,10.21328 11.624237,11.02313 1.379632,0.21013 3.305421,0.0502 5.114936,-0.42484 z M 328.8408,144.11181 c -0.54906,-0.22207 -1.40259,-0.56701 -1.89674,-0.7665 -0.49415,-0.19951 -1.97659,-0.77112 -3.29432,-1.27023 -1.31773,-0.49914 -2.66541,-1.02345 -2.99484,-1.16515 -0.32944,-0.14172 -0.81977,-0.32332 -1.08963,-0.40355 -1.35023,-0.40151 -11.71131,-5.67458 -14.68321,-7.47269 -6.71183,-4.06098 -6.89752,-4.18756 -13.97592,-9.52832 -2.15341,-1.62479 -8.20273,-7.23508 -10.93189,-10.13854 -8.85589,-9.42142 -15.89211,-20.430163 -19.9169,-31.161529 -0.42448,-1.13181 -0.96525,-2.542899 -1.20169,-3.135752 -0.83146,-2.084863 -1.59279,-4.674524 -2.50436,-8.518642 -0.37783,-1.593334 -0.45799,-2.260387 -0.30995,-2.579332 0.17646,-0.380151 0.92098,-0.938511 5.11603,-3.836808 0.54905,-0.379328 3.8284,-2.655237 7.28745,-5.057575 3.45904,-2.402333 10.69158,-7.24948 16.07231,-10.771437 12.36542,-8.093782 11.10274,-7.294981 20.46475,-12.94645 1.37264,-0.828603 4.92152,-2.985865 7.88642,-4.793912 5.5145,-3.362845 15.72018,-9.164013 20.36492,-11.57594 1.42754,-0.741296 3.31429,-1.729232 4.19278,-2.195412 1.60527,-0.851862 12.0265,-5.927094 12.17039,-5.927094 0.0423,0 1.09482,-0.481418 2.33884,-1.0698207 2.75924,-1.3050666 11.46926,-4.7748856 14.34107,-5.7130731 4.30579,-1.4066492 9.62464,-2.8965977 11.48023,-3.21590739 0.65886,-0.11337702 1.78193,-0.3525604 2.4957,-0.53151775 0.9754,-0.24455728 2.24004,-0.32804079 5.09123,-0.33609967058 4.21901,-0.0119158594 5.14142,0.16731783058 8.26015,1.60509531058 3.50063,1.6138381 5.71398,5.1136545 6.25513,9.8908603 0.5417,4.78209 -0.48277,11.302775 -2.93407,18.674935 -0.14335,0.431166 -0.5095,1.621772 -0.81364,2.645791 -0.56728,1.910017 -4.36364,11.414641 -5.67534,14.208875 -2.57632,5.488139 -5.0375,10.568955 -5.88604,12.151037 -0.57813,1.077915 -1.88703,3.547322 -2.90867,5.487568 -1.74833,3.320369 -2.97546,5.567997 -4.28001,7.839379 -5.45207,9.492724 -5.43288,9.460916 -13.82369,22.930185 -2.08163,3.341535 -4.34497,6.987136 -5.02964,8.101336 -0.68466,1.11419 -2.55505,3.98046 -4.15644,6.36949 -1.60138,2.38903 -4.61906,6.90129 -6.70597,10.02724 -5.79789,8.68462 -16.72632,24.095 -17.30151,24.39717 -0.46213,0.24278 -0.31007,0.26481 -1.50293,-0.21768 z M 49.361314,79.216538 c -0.49275,-1.36321 -1.697403,-4.936359 -2.428234,-7.20243 -0.191202,-0.592853 -0.908357,-3.018161 -1.593679,-5.389573 -1.198593,-4.147483 -1.48746,-5.25648 -2.603515,-9.995211 -0.279255,-1.185706 -0.593238,-2.465183 -0.69774,-2.84328 -0.236479,-0.855594 -1.119971,-5.634472 -1.285979,-6.955944 -0.06771,-0.538957 -0.256261,-1.77366 -0.419014,-2.743783 -0.876115,-5.222292 -0.946332,-5.998597 -1.028165,-11.3671 -0.07837,-5.140949 -0.05266,-5.667063 0.407018,-8.32934 0.665109,-3.852075 1.263542,-5.696651 2.599667,-8.013044 2.17132,-3.764343 5.42708,-5.856861 9.76679,-6.277234 2.233351,-0.2163375 6.301292,0.02828 7.725765,0.464567 0.494149,0.151351 1.212911,0.337104 1.597249,0.412785 3.123406,0.615046 12.089961,4.29234 15.401311,6.316268 0.698485,0.426921 3.1118,1.816235 5.362922,3.087368 7.09211,4.004674 17.143187,11.006459 25.75172,17.939171 3.49654,2.815878 3.68807,2.99897 3.53813,3.382481 -0.0809,0.207026 -1.01291,0.294388 -4.16519,0.390432 -4.29047,0.130724 -9.07582,0.72519 -11.997271,1.490376 -0.851034,0.222903 -2.198713,0.572929 -2.994842,0.777835 -0.796128,0.204907 -1.67212,0.466692 -1.946647,0.581746 -0.274527,0.115053 -1.577283,0.614686 -2.895013,1.110294 -3.136174,1.179538 -7.983774,3.669903 -10.981085,5.641329 -4.366479,2.871972 -9.595187,7.225877 -12.335584,10.271752 -5.743791,6.384057 -8.678524,10.24307 -11.540436,15.17502 -1.729467,2.980414 -2.095876,3.496402 -2.482785,3.496402 -0.132989,0 -0.472916,-0.639399 -0.755393,-1.420887 z"
       id="path968" />
  </g>
</svg>
