<?xml version="1.0" encoding="UTF-8" standalone="no"?>
<!-- Created with Inkscape (http://www.inkscape.org/) -->

<svg
   version="1.1"
   id="svg9"
   width="400"
   height="400"
   viewBox="0 0 400 400"
   sodipodi:docname="bsdsmile.svg"
   inkscape:version="1.1 (c68e22c387, 2021-05-23)"
   xmlns:inkscape="http://www.inkscape.org/namespaces/inkscape"
   xmlns:sodipodi="http://sodipodi.sourceforge.net/DTD/sodipodi-0.dtd"
   xmlns="http://www.w3.org/2000/svg"
   xmlns:svg="http://www.w3.org/2000/svg">
  <defs
     id="defs13" />
  <sodipodi:namedview
     id="namedview11"
     pagecolor="#ffffff"
     bordercolor="#666666"
     borderopacity="1.0"
     inkscape:pageshadow="2"
     inkscape:pageopacity="0.0"
     inkscape:pagecheckerboard="0"
     showgrid="false"
     width="400px"
     inkscape:zoom="0.30083609"
     inkscape:cx="260.93944"
     inkscape:cy="472.01784"
     inkscape:window-width="1600"
     inkscape:window-height="822"
     inkscape:window-x="-8"
     inkscape:window-y="-8"
     inkscape:window-maximized="1"
     inkscape:current-layer="g15" />
  <g
     inkscape:groupmode="layer"
     inkscape:label="Image"
     id="g15">
    <path
       style="fill:#020202;stroke-width:0.197812"
       d="m 174.25068,399.89866 c -1.45851,-0.0888 -2.79033,-0.21363 -2.95962,-0.27738 -0.16927,-0.0638 -1.72583,-0.20429 -3.459,-0.3123 -1.73318,-0.10799 -3.60499,-0.28083 -4.1596,-0.38407 -0.5546,-0.10325 -1.98252,-0.28222 -3.17315,-0.39771 -3.6339,-0.3525 -12.60537,-1.93613 -17.83781,-3.14873 -0.9334,-0.21631 -2.326,-0.5287 -3.09467,-0.69423 -0.76868,-0.16551 -2.47574,-0.60338 -3.79347,-0.97301 -1.31773,-0.36962 -3.06971,-0.86147 -3.89329,-1.09296 -2.60611,-0.73257 -10.39338,-3.30465 -12.72806,-4.20399 -1.23537,-0.47587 -3.25689,-1.25708 -4.49226,-1.73599 -7.4248,-2.8784 -16.780433,-7.46647 -25.353663,-12.4336 -2.72575,-1.57924 -8.18075,-5.09567 -11.53281,-7.43436 -8.13894,-5.67841 -15.46241,-11.7111 -22.63545,-18.64592 -8.55435,-8.27022 -14.24966,-14.78965 -21.01398,-24.05465 -2.29409,-3.14216 -3.17873,-4.42966 -6.16816,-8.97695 -4.68774,-7.13064 -11.63536,-20.50176 -14.66398,-28.22176 -0.25372,-0.64675 -0.57868,-1.44048 -0.72211,-1.76386 -0.67842,-1.52956 -1.76145,-4.47513 -3.0265301,-8.23134 -1.32793,-3.9429 -1.73613,-5.23551 -2.64652,-8.38036 -0.22591,-0.78039 -0.53524,-1.81573 -0.6874,-2.30079 -0.25588,-0.81567 -0.49542,-1.761 -1.51471,-5.97753 -0.99235,-4.10505 -1.33376,-5.79381 -2.08016,-10.28918 -0.15213,-0.91623 -0.36609,-2.06274 -0.47546,-2.5478 -0.10937,-0.48506 -0.25661,-1.45518 -0.32721,-2.15583 -0.0706,-0.70064 -0.25842,-2.15583 -0.41734,-3.23374 -1.10447998,-7.49047 -1.62124998,-19.07816 -1.30011998,-29.15268 0.18695,-5.86537 0.73024,-13.01251 1.21787998,-16.02173 0.11352,-0.70064 0.33332,-2.28814 0.48844,-3.52774 0.15509,-1.2396 0.51393,-3.48852 0.79742,-4.9976 0.28347,-1.50908 0.60225,-3.31704 0.70836,-4.01768 0.10612,-0.70065 0.32239,-1.80306 0.48059,-2.44981 0.15821,-0.64675 0.46796,-1.92554 0.68834,-2.84177 1.0884,-4.52489 1.56374,-6.31431 2.73325,-10.28918 2.43592,-8.27915 4.7950001,-14.61076 8.6165001,-23.12617 9.56019,-21.30284 24.08659,-41.45479 41.58832,-57.693963 1.81455,-1.6837 4.2853,-3.89432 5.49054,-4.91254 1.20522,-1.01822 2.77532,-2.3485 3.48909,-2.95617 7.67284,-6.53234 22.11047,-16.02417 31.74534,-20.87057 7.051293,-3.54685 14.094193,-6.75261 17.669553,-8.04275 0.9883,-0.35662 2.3809,-0.88178 3.09467,-1.16703 1.51669,-0.6061 2.06916,-0.7983 6.98797,-2.43101 4.12253,-1.3684 11.42647,-3.44848 14.47504,-4.12234 1.09811,-0.24272 2.6704,-0.59744 3.49398,-0.78825 6.79314,-1.57385 18.0452,-3.25165 25.05684,-3.73624 1.64716,-0.11385 3.89329,-0.28791 4.9914,-0.38682 2.61749,-0.23575 17.09605,-0.23369 20.16526,0.003 1.31773,0.10158 4.19701,0.31497 6.39838,0.47422 2.20139,0.15924 4.4026,0.3751 4.89158,0.47968 0.48899,0.10457 1.51798,0.24954 2.28666,0.32216 3.19531,0.30185 13.93411,2.13581 16.67128,2.8471 0.38434,0.0999 1.68709,0.40559 2.89501,0.67938 2.88787,0.65455 5.11443,1.2165 6.58865,1.66285 0.65887,0.19949 1.87178,0.5553 2.69536,0.7907 6.47467,1.85062 18.53543,6.1913 19.63813,7.06779 0.56796,0.45145 0.18213,0.88965 -0.93187,1.05829 -2.16551,0.3278 -4.68885,1.5189 -6.14975,2.90286 -3.52571,3.33999 -4.80522,8.49491 -3.86231,15.56055 0.36194,2.71208 0.48411,3.1659 2.31122,8.58436 1.14627,3.39929 1.81741,4.9685 3.85586,9.0153 1.35742,2.69479 2.9938,5.71524 3.63644,6.71209 4.3161,6.695353 5.23314,8.063873 6.43264,9.599533 5.58206,7.14653 7.26374,9.14158 11.51789,13.66397 2.64151,2.80809 5.87093,6.07573 7.17646,7.26144 1.30555,1.1857 3.59164,3.26494 5.08023,4.62053 2.52729,2.30148 5.49867,4.65096 11.61951,9.18751 1.3882,1.0289 2.78081,2.01498 3.09466,2.19128 0.31386,0.17633 2.36757,1.44576 4.56378,2.82094 6.04477,3.78501 12.28738,6.76893 18.3684,8.77997 6.44931,2.13284 7.70531,2.36992 12.57829,2.37437 3.17613,0.003 4.2519,-0.0658 5.25789,-0.33582 3.15375,-0.84652 5.9752,-2.58488 7.49595,-4.61845 1.05865,-1.41566 1.99835,-3.603 2.41348,-5.61786 0.53554,-2.59932 0.82096,-2.81978 1.58573,-1.2249 1.03573,2.16002 2.78819,6.19968 3.46459,7.98637 0.38767,1.02402 0.92441,2.4351 1.19276,3.13575 0.76267,1.99114 2.94407,8.3377 3.53655,10.28918 0.29453,0.97012 0.62361,1.97541 0.73126,2.23395 0.10766,0.25856 0.31811,0.9641 0.4677,1.56787 0.14956,0.60379 0.69131,2.68526 1.20388,4.62551 1.00699,3.81178 1.60148,6.3753 1.90891,8.23135 0.10714,0.64674 0.32405,1.70506 0.48203,2.35181 0.75289,3.08223 1.75079,9.94464 2.39392,16.46271 1.10827,11.23232 0.99483,25.68895 -0.29144,37.13905 -0.22401,1.99414 -0.44671,3.758 -0.49489,3.91969 -0.0482,0.16168 -0.18136,1.08771 -0.29601,2.05783 -0.11464,0.97013 -0.38747,2.71194 -0.60625,3.87069 -0.2188,1.15876 -0.58054,3.09901 -0.8039,4.31166 -0.22333,1.21266 -0.53398,2.73398 -0.69033,3.38073 -0.26366,1.09075 -0.51052,2.14237 -1.40314,5.97753 -0.62998,2.7067 -2.88827,10.24849 -4.28398,14.30686 -1.28121,3.72545 -4.60273,12.14051 -5.68575,14.40486 -0.25777,0.53895 -0.89018,1.90594 -1.40534,3.03775 -0.51515,1.13181 -1.59367,3.33664 -2.39673,4.89962 -0.80303,1.56297 -1.75479,3.41502 -2.11501,4.11567 -2.62886,5.11317 -8.72835,14.78841 -12.89132,20.4487 -12.27479,16.68968 -26.63508,30.76879 -43.27032,42.42306 -3.27548,2.29472 -4.76571,3.2739 -9.35007,6.14354 -2.14758,1.3443 -8.53163,4.95821 -10.93856,6.19213 -2.91482,1.4943 -7.93487,3.97027 -8.04975,3.97027 -0.0524,0 -1.1152,0.47301 -2.36184,1.05115 -3.17898,1.47427 -5.59398,2.45662 -11.55058,4.69843 -3.18338,1.19809 -9.6604,3.32807 -12.27885,4.03794 -3.12541,0.84732 -4.40551,1.19941 -5.39071,1.48276 -0.54906,0.15793 -2.0315,0.51405 -3.29433,0.79141 -1.26282,0.27736 -3.0148,0.67311 -3.89329,0.87944 -1.44168,0.33858 -2.62877,0.57102 -7.4871,1.46592 -2.5305,0.46611 -6.38822,1.04011 -8.48539,1.26256 -1.0981,0.11649 -2.49071,0.29683 -3.09467,0.4008 -0.60395,0.10397 -2.4907,0.27985 -4.19277,0.39084 -1.70207,0.111 -3.58882,0.29115 -4.19278,0.40033 -1.40891,0.25472 -18.63157,0.40395 -22.1183,0.19166 z m -16.91446,-26.4628 c 9.206,-0.73814 17.20366,-2.81316 24.348,-6.31718 12.86771,-6.31115 21.56686,-16.94731 25.05148,-30.62959 1.18905,-4.66874 1.74432,-11.01501 1.41498,-16.17193 -0.2151,-3.3682 -0.75188,-7.63161 -1.01307,-8.04647 -0.11931,-0.18948 -0.57619,-0.17037 -2.11616,0.0885 -15.45978,2.59871 -28.1385,4.03508 -42.79366,4.84808 -5.32267,0.29527 -21.14721,0.29551 -26.25477,0 -20.72554,-1.19754 -37.693093,-4.45752 -54.605933,-10.49143 -10.43243,-3.72194 -22.31363,-9.53122 -28.85031,-14.1063 -5.01288,-3.50857 -11.34378,-9.34638 -14.94741,-13.78321 -1.07247,-1.32044 -2.03386,-2.40081 -2.1364,-2.40081 -0.24122,0 -0.23927,0.0532 0.10811,2.94096 3.11272,25.87473 21.79985,53.26734 48.92067,71.71053 4.72626,3.21402 7.88233,5.16938 11.97108,7.41671 15.416063,8.47329 32.086673,13.65193 48.025573,14.91889 2.97813,0.23673 10.05388,0.24931 12.87782,0.0229 z M 205.21051,251.7595 c 1.90677,-0.49933 4.5032,-1.67578 6.33125,-2.86872 5.15245,-3.36235 9.51407,-9.82662 11.25188,-16.67618 0.90937,-3.58426 1.02855,-4.67229 1.01775,-9.29246 -0.009,-4.00753 -0.0588,-4.63409 -0.54247,-6.8709 -1.35059,-6.24655 -4.16141,-11.69218 -8.02234,-15.54231 -11.12112,-11.09002 -27.41022,-7.60867 -34.86734,7.45193 -2.239,4.52195 -3.18645,8.56111 -3.32643,14.18142 -0.10152,4.07549 0.15659,6.71883 0.95991,9.83042 2.71247,10.50668 9.9976,18.24433 18.88191,20.05479 1.97484,0.40243 6.28628,0.26348 8.31588,-0.26799 z M 36.843777,212.51086 c 8.02188,-2.10586 15.75312,-11.66002 18.53565,-22.90609 1.04129,-4.20859 1.31284,-6.38357 1.30909,-10.48517 -0.005,-5.31988 -0.73973,-8.9805 -2.56213,-12.76301 -1.18139,-2.45206 -2.21399,-3.88155 -3.95728,-5.47826 -4.16814,-3.81768 -9.41624,-4.37725 -15.02241,-1.60174 -6.89125,3.41172 -12.87292,11.93184 -15.36151,21.88046 -1.84473,7.37468 -1.72643,15.06168 0.31943,20.75552 2.30656,6.41947 6.30727,10.21328 11.62423,11.02312 1.37963,0.21014 3.30541,0.0502 5.11493,-0.42483 z M 328.84078,144.11179 c -0.54905,-0.22207 -1.40258,-0.56701 -1.89673,-0.7665 -0.49415,-0.19953 -1.97659,-0.77114 -3.29432,-1.27025 -1.31773,-0.49914 -2.66541,-1.02345 -2.99484,-1.16515 -0.32944,-0.14172 -0.81977,-0.32332 -1.08963,-0.40355 -1.35023,-0.40152 -11.7113,-5.67457 -14.6832,-7.47269 -6.71184,-4.06098 -6.89752,-4.18756 -13.97593,-9.52831 -2.15341,-1.62479 -8.20273,-7.23508 -10.93189,-10.13853 -8.85588,-9.42142 -15.8921,-20.430153 -19.91689,-31.161533 -0.42449,-1.13181 -0.96526,-2.5429 -1.20169,-3.13575 -0.83147,-2.08489 -1.5928,-4.67453 -2.50437,-8.51864 -0.37782,-1.59334 -0.45799,-2.26039 -0.30994,-2.57933 0.17645,-0.38016 0.92097,-0.93852 5.11603,-3.83681 0.54905,-0.37932 3.8284,-2.65523 7.28744,-5.05757 3.45904,-2.40234 10.69158,-7.24948 16.07232,-10.77142 12.36542,-8.09379 11.10273,-7.29499 20.46474,-12.94646 1.37264,-0.8286 4.92153,-2.98586 7.88642,-4.79391 5.5145,-3.36284 15.72018,-9.16402 20.36492,-11.57594 1.42754,-0.74129 3.31429,-1.72923 4.19278,-2.1954 1.60527,-0.85187 12.0265,-5.9271 12.17039,-5.9271 0.0423,0 1.09481,-0.48141 2.33883,-1.0698199 2.75925,-1.30506 11.46927,-4.77488 14.34108,-5.71308 4.30578,-1.40664 9.62464,-2.89659 11.48022,-3.21590001 0.65887,-0.11338 1.78193,-0.35256 2.4957,-0.53152 0.9754,-0.24456 2.24004,-0.32804 5.09123,-0.33609999646 4.21902,-0.0119000035 5.14143,0.16731999646 8.26015,1.60510000646 3.50063,1.61383 5.71398,5.11364 6.25515,9.8908599 0.54171,4.78208 -0.48279,11.30278 -2.93409,18.67493 -0.14335,0.43116 -0.5095,1.62177 -0.81363,2.64579 -0.56729,1.91002 -4.36365,11.41464 -5.67535,14.20887 -2.57632,5.48813 -5.0375,10.56895 -5.88604,12.15103 -0.57812,1.07792 -1.88703,3.54732 -2.90867,5.48757 -1.74833,3.32036 -2.97545,5.56799 -4.28001,7.83937 -5.45206,9.49272 -5.43288,9.46089 -13.82368,22.93019 -2.08164,3.34154 -4.34498,6.987123 -5.02964,8.101313 -0.68466,1.11421 -2.55506,3.98048 -4.15644,6.36949 -1.60138,2.38905 -4.61906,6.9013 -6.70597,10.02725 -5.79789,8.68461 -16.72633,24.09501 -17.30151,24.39717 -0.46213,0.24279 -0.31007,0.26482 -1.50294,-0.21767 z M 49.361317,79.216507 c -0.49275,-1.3632 -1.69742,-4.93635 -2.42824,-7.20242 -0.19121,-0.59286 -0.90835,-3.01816 -1.59367,-5.38957 -1.1986,-4.14748 -1.48746,-5.25648 -2.60352,-9.9952 -0.27926,-1.18571 -0.59324,-2.46519 -0.69774,-2.84329 -0.23649,-0.85559 -1.11997,-5.63447 -1.28598,-6.95594 -0.0677,-0.53895 -0.25626,-1.77365 -0.41902,-2.74378 -0.87611,-5.2223 -0.94633,-5.99859 -1.02817,-11.36709 -0.0784,-5.14095 -0.0527,-5.66707 0.40702,-8.32934 0.66511,-3.85208 1.26354,-5.69666 2.59968,-8.01304 2.17132,-3.76435 5.42707,-5.85686 9.76678,-6.27725 2.23335,-0.2163199 6.3013,0.0283 7.72577,0.46458 0.49415,0.15134 1.21291,0.3371 1.59725,0.41279 3.1234,0.61504 12.08995,4.29233 15.40131,6.31626 0.69847,0.42691 3.1118,1.81623 5.36292,3.08737 7.0921,4.00468 17.14321,11.00646 25.751743,17.93917 3.49653,2.81587 3.68806,2.99896 3.53812,3.38248 -0.0809,0.20702 -1.01291,0.29439 -4.16518,0.39042 -4.29047,0.13072 -9.075833,0.7252 -11.997273,1.49038 -0.85104,0.2229 -2.19874,0.57293 -2.99486,0.77785 -0.79613,0.2049 -1.67212,0.46667 -1.94665,0.58174 -0.27453,0.11504 -1.57728,0.61468 -2.89501,1.11029 -3.13618,1.17953 -7.98377,3.6699 -10.98109,5.64133 -4.36648,2.87196 -9.59519,7.22587 -12.33559,10.27174 -5.74379,6.38405 -8.67851,10.24306 -11.54042,15.17501 -1.72948,2.98039 -2.09589,3.4964 -2.4828,3.4964 -0.13297,0 -0.47291,-0.6394 -0.75538,-1.42089 z"
       id="path221" />
  </g>
</svg>
