<?xml version="1.0" encoding="UTF-8" standalone="no"?>
<!-- Created with Inkscape (http://www.inkscape.org/) -->

<svg
   version="1.1"
   id="svg333"
   width="400"
   height="400"
   viewBox="0 0 400 400"
   sodipodi:docname="bsdvampire.svg"
   inkscape:version="1.1 (c68e22c387, 2021-05-23)"
   xmlns:inkscape="http://www.inkscape.org/namespaces/inkscape"
   xmlns:sodipodi="http://sodipodi.sourceforge.net/DTD/sodipodi-0.dtd"
   xmlns="http://www.w3.org/2000/svg"
   xmlns:svg="http://www.w3.org/2000/svg">
  <defs
     id="defs337" />
  <sodipodi:namedview
     id="namedview335"
     pagecolor="#ffffff"
     bordercolor="#666666"
     borderopacity="1.0"
     inkscape:pageshadow="2"
     inkscape:pageopacity="0.0"
     inkscape:pagecheckerboard="0"
     showgrid="false"
     width="400px"
     inkscape:zoom="0.21201657"
     inkscape:cx="40.091205"
     inkscape:cy="1448"
     inkscape:window-width="1600"
     inkscape:window-height="822"
     inkscape:window-x="-8"
     inkscape:window-y="-8"
     inkscape:window-maximized="1"
     inkscape:current-layer="g339" />
  <g
     inkscape:groupmode="layer"
     inkscape:label="Image"
     id="g339">
    <path
       style="fill:#020202;stroke-width:0.197812"
       d="m 174.25069,399.89873 c -1.45851,-0.0888 -2.79034,-0.21362 -2.95963,-0.27738 -0.16926,-0.0638 -1.72582,-0.20429 -3.459,-0.3123 -1.73317,-0.10799 -3.60499,-0.28083 -4.15959,-0.38407 -0.55461,-0.10324 -1.98253,-0.28222 -3.17316,-0.39771 -3.6339,-0.3525 -12.60536,-1.93613 -17.83781,-3.14873 -0.93339,-0.21631 -2.32599,-0.5287 -3.09467,-0.69423 -0.76868,-0.16551 -2.47573,-0.60338 -3.79346,-0.97301 -1.31774,-0.36962 -3.06972,-0.86147 -3.8933,-1.09296 -2.60611,-0.73257 -10.3934,-3.30465 -12.72807,-4.20399 -1.23538,-0.47587 -3.25689,-1.25708 -4.49227,-1.73599 -7.4248,-2.8784 -16.780439,-7.46648 -25.353639,-12.43361 -2.725757,-1.57924 -8.180759,-5.09567 -11.532819,-7.43436 -8.138936,-5.67841 -15.462407,-11.71111 -22.635455,-18.64592 -8.554329,-8.27023 -14.249644,-14.78966 -21.013981,-24.05466 -2.294082,-3.14216 -3.178726,-4.42967 -6.168155,-8.97696 -4.687739,-7.13064 -11.635354,-20.50176 -14.663981,-28.22176 -0.253725,-0.64675 -0.578671,-1.44049 -0.722102,-1.76386 -0.678428,-1.52956 -1.761462,-4.47513 -3.0265289,-8.23135 -1.3279366,-3.94289 -1.7361434,-5.23551 -2.6465353,-8.38036 -0.2259068,-0.78039 -0.535234,-1.81573 -0.6873939,-2.30079 -0.2558713,-0.81567 -0.4954166,-1.761 -1.5147049,-5.97753 -0.9923406,-4.10505 -1.3337565,-5.79381 -2.0801568,-10.28919 -0.152128,-0.91622 -0.3660814,-2.06273 -0.475455,-2.54779 -0.1093716,-0.48507 -0.2566239,-1.45519 -0.3272243,-2.15583 -0.070602,-0.70065 -0.2584069,-2.15583 -0.4173431,-3.23375 -1.10445954,-7.49047 -1.62123338,-19.07817 -1.30011451,-29.15269 0.18695595,-5.86536 0.73023813,-13.01251 1.21787411,-16.02173 0.1135385,-0.70064 0.3333339,-2.28812 0.4884367,-3.52772 0.1551028,-1.2396 0.5139446,-3.48852 0.7974263,-4.99761 0.2834797,-1.50908 0.6022427,-3.31703 0.7083619,-4.01768 0.1061192,-0.70064 0.3223846,-1.80305 0.4805921,-2.4498 0.1582055,-0.64675 0.4679619,-1.92555 0.6883463,-2.84178 1.0883952,-4.52489 1.5637364,-6.3143 2.7332419,-10.28918 2.435922,-8.27915 4.7950024,-14.61076 8.6165054,-23.12617 9.560193,-21.30283 24.086597,-41.4548 41.588315,-57.693972 1.814567,-1.683664 4.285311,-3.89431 5.490543,-4.912528 1.20523,-1.018217 2.775321,-2.348501 3.489092,-2.956171 7.672835,-6.532319 22.11047,-16.024181 31.745317,-20.870583 7.051287,-3.546849 14.094207,-6.752606 17.669567,-8.042752 0.98829,-0.356633 2.3809,-0.881793 3.09467,-1.167029 1.51668,-0.606102 2.06915,-0.798304 6.98796,-2.431011 4.12256,-1.368403 11.4265,-3.448484 14.47506,-4.122338 1.09811,-0.242727 2.67041,-0.597439 3.49399,-0.788249 6.79314,-1.573854 18.04519,-3.251657 25.05684,-3.736249 1.64716,-0.113847 3.89329,-0.287901 4.9914,-0.386814 2.61749,-0.23575 17.09605,-0.233692 20.16526,0.0029 1.31773,0.101559 4.19701,0.314966 6.39838,0.474223 2.20139,0.159238 4.4026,0.375095 4.89157,0.479672 0.489,0.104578 1.51799,0.249547 2.28667,0.32216 3.19531,0.301855 13.93411,2.135819 16.67128,2.847105 0.38434,0.09987 1.68709,0.40559 2.89501,0.679381 2.88787,0.654548 5.11443,1.216495 6.58865,1.662849 0.65887,0.199493 1.87178,0.555303 2.69536,0.7907 6.47467,1.850622 18.53543,6.191306 19.63813,7.067769 0.56796,0.451469 0.18213,0.889691 -0.93187,1.058316 -2.16551,0.327823 -4.68885,1.518899 -6.14975,2.902863 -3.52571,3.339987 -4.80522,8.494908 -3.86231,15.56056 0.36194,2.712073 0.48411,3.165914 2.31122,8.584356 1.14627,3.399311 1.81741,4.9685 3.85586,9.015286 1.35742,2.694786 2.9938,5.715241 3.63644,6.712116 4.3161,6.69534 5.23314,8.06386 6.43264,9.59954 5.58206,7.14651 7.26374,9.14155 11.5179,13.66395 2.64151,2.80809 5.87092,6.07574 7.17645,7.26145 1.30556,1.1857 3.59164,3.26494 5.08023,4.62053 2.52729,2.30148 5.49867,4.65096 11.61951,9.18751 1.38821,1.0289 2.78081,2.01498 3.09467,2.19129 0.31386,0.1763 2.36756,1.44573 4.56378,2.82092 6.04476,3.78501 12.28737,6.76893 18.3684,8.77997 6.44931,2.13284 7.7053,2.36992 12.57829,2.37437 3.17613,0.003 4.2519,-0.0658 5.25788,-0.33582 3.15375,-0.84652 5.97521,-2.58488 7.49595,-4.61846 1.05866,-1.41565 1.99836,-3.60299 2.41348,-5.61785 0.53554,-2.59932 0.82097,-2.81979 1.58573,-1.2249 1.03574,2.16002 2.7882,6.19967 3.46459,7.98636 0.38768,1.02402 0.92441,2.43511 1.19277,3.13576 0.76267,1.99114 2.94407,8.3377 3.53655,10.28918 0.29453,0.97012 0.6236,1.97541 0.73126,2.23395 0.10765,0.25856 0.31811,0.96411 0.46769,1.56787 0.14956,0.60379 0.69131,2.68527 1.20389,4.62551 1.00698,3.81178 1.60148,6.3753 1.90891,8.23135 0.10714,0.64675 0.32404,1.70507 0.48203,2.35181 0.75288,3.08223 1.75078,9.94465 2.39392,16.4627 1.10827,11.23232 0.99482,25.68896 -0.29144,37.13906 -0.22402,1.99414 -0.44671,3.758 -0.49489,3.91969 -0.0482,0.16169 -0.18137,1.08771 -0.29601,2.05784 -0.11464,0.97012 -0.38747,2.71193 -0.60625,3.87069 -0.21881,1.15876 -0.58054,3.09901 -0.8039,4.31166 -0.22334,1.21265 -0.53398,2.73398 -0.69033,3.38073 -0.26367,1.09075 -0.51052,2.14237 -1.40314,5.97753 -0.62998,2.7067 -2.88827,10.2485 -4.28398,14.30687 -1.28122,3.72544 -4.60274,12.14051 -5.68575,14.40485 -0.25778,0.53896 -0.89019,1.90595 -1.40534,3.03776 -0.51515,1.13181 -1.59367,3.33664 -2.39673,4.89962 -0.80304,1.56297 -1.7548,3.41503 -2.11502,4.11567 -2.62885,5.11318 -8.72834,14.78842 -12.89131,20.44871 -12.2748,16.68968 -26.63508,30.7688 -43.27033,42.42307 -3.27548,2.29473 -4.76571,3.2739 -9.35007,6.14355 -2.14758,1.34429 -8.53163,4.95821 -10.93856,6.19213 -2.91482,1.4943 -7.93487,3.97027 -8.04975,3.97027 -0.0524,0 -1.1152,0.47301 -2.36184,1.05114 -3.17898,1.47428 -5.59398,2.45663 -11.55058,4.69844 -3.18338,1.19809 -9.6604,3.32807 -12.27885,4.03794 -3.12541,0.84732 -4.40551,1.19941 -5.39071,1.48276 -0.54906,0.15793 -2.0315,0.51405 -3.29433,0.79141 -1.26282,0.27736 -3.0148,0.67311 -3.89329,0.87944 -1.44168,0.33858 -2.62877,0.57102 -7.4871,1.46592 -2.53051,0.46611 -6.38822,1.04011 -8.48539,1.26256 -1.09811,0.11649 -2.49071,0.29683 -3.09467,0.4008 -0.60396,0.10397 -2.49071,0.27985 -4.19278,0.39084 -1.70206,0.111 -3.58881,0.29115 -4.19277,0.40033 -1.40892,0.25465 -18.63157,0.40387 -22.1183,0.19158 z m -16.68059,-28.5206 c 4.70713,-0.37096 6.27942,-0.56215 10.64738,-1.29466 4.57781,-0.76769 11.67387,-2.45758 12.01602,-2.86155 0.14455,-0.17066 1.61881,-4.02317 3.27612,-8.56109 1.87199,-5.12582 3.11972,-8.27113 3.29432,-8.30455 0.15458,-0.0296 2.51427,2.28549 5.24377,5.14459 2.7295,2.8591 5.10095,5.19838 5.2699,5.19838 0.72639,0 7.4347,-3.81026 11.2304,-6.37877 7.47842,-5.06057 13.04393,-10.08299 17.68963,-15.96347 11.64376,-14.73852 19.25283,-28.40434 24.33452,-43.70453 1.77027,-5.32998 3.77492,-13.11989 3.45669,-13.43229 -0.0677,-0.0665 -1.18686,0.57794 -2.48698,1.43202 -3.34476,2.19722 -5.10634,3.21595 -8.75284,5.06181 -7.67504,3.88512 -15.75157,6.63644 -24.64198,8.39448 -1.91314,0.37831 -3.5509,0.80078 -3.63949,0.93881 -0.0886,0.13803 -2.02315,4.24169 -4.29907,9.11925 -2.27592,4.87757 -4.23754,8.8683 -4.35915,8.8683 -0.12163,0 -2.76376,-4.09464 -5.87139,-9.09922 l -5.65023,-9.09921 -2.32361,-0.51864 c -13.52085,-3.01782 -24.3957,-8.12559 -49.44244,-23.22241 -16.72952,-10.08366 -25.2267,-14.70242 -35.43895,-19.2633 -7.892564,-3.5249 -18.510833,-7.12646 -27.452715,-9.31155 -6.716093,-1.64122 -12.560378,-2.7575 -12.999893,-2.48309 -0.166643,0.10405 -2.099376,3.49643 -4.294962,7.53861 -2.195586,4.04217 -4.107462,7.46481 -4.248619,7.60586 -0.251084,0.25088 -0.777373,-0.42139 -12.226713,-15.61783 -0.344505,-0.45727 -0.671518,-0.10606 -2.700824,2.90049 -4.064097,6.02125 -6.594624,12.80583 -7.681293,20.59425 -0.416374,2.98427 -0.473905,10.2348 -0.10652,13.42494 3.048509,26.47142 21.598811,53.92542 49.05057,72.59367 8.770601,5.96433 16.201099,10.01968 25.347029,13.83364 3.6516,1.52276 12.62502,4.60748 13.40314,4.60748 0.35347,0 1.12301,-1.17987 4.37804,-6.71247 2.17208,-3.69186 4.0624,-6.83333 4.20075,-6.98105 0.31611,-0.33752 0.29628,-0.36729 4.48701,6.73607 1.78059,3.01816 3.7237,6.30335 4.318,7.30042 l 1.08056,1.81286 h 6.06729 c 3.62288,0 7.5818,-0.11936 9.82653,-0.29625 z m 47.64042,-119.6186 c 1.90677,-0.49933 4.5032,-1.67579 6.33125,-2.86873 5.15245,-3.36234 9.51407,-9.82662 11.25188,-16.67618 0.90937,-3.58426 1.02855,-4.67229 1.01775,-9.29246 -0.009,-4.00753 -0.0588,-4.6341 -0.54247,-6.87091 -1.35059,-6.24655 -4.16141,-11.69218 -8.02234,-15.54231 -11.12112,-11.09 -27.41023,-7.60865 -34.86734,7.45194 -2.239,4.52195 -3.18645,8.56111 -3.32643,14.18141 -0.10153,4.0755 0.15659,6.71884 0.95991,9.83043 2.71246,10.50669 9.99759,18.24433 18.88191,20.0548 1.97484,0.40243 6.28627,0.26348 8.31588,-0.26799 z M 36.843775,212.51087 c 8.021876,-2.10585 15.753133,-11.66002 18.535652,-22.90608 1.041296,-4.20859 1.312844,-6.38356 1.309087,-10.48517 -0.0049,-5.31988 -0.739726,-8.98049 -2.562123,-12.76301 -1.181383,-2.45206 -2.213994,-3.88156 -3.957277,-5.47826 -4.168142,-3.81768 -9.416248,-4.37726 -15.022416,-1.60174 -6.891243,3.41171 -12.872921,11.93185 -15.361511,21.88047 -1.844733,7.37468 -1.726435,15.06166 0.319416,20.7555 2.306575,6.41947 6.307279,10.21328 11.624237,11.02313 1.379631,0.21013 3.30542,0.0502 5.114935,-0.42484 z M 328.8408,144.1118 c -0.54906,-0.22207 -1.40259,-0.567 -1.89673,-0.7665 -0.49415,-0.19951 -1.9766,-0.77112 -3.29433,-1.27023 -1.31773,-0.49913 -2.66541,-1.02345 -2.99484,-1.16515 -0.32943,-0.14171 -0.81977,-0.32331 -1.08962,-0.40355 -1.35024,-0.40151 -11.71131,-5.67457 -14.68321,-7.47269 -6.71184,-4.06098 -6.89752,-4.18756 -13.97593,-9.52832 -2.15341,-1.62479 -8.20273,-7.23508 -10.93189,-10.13853 -8.85588,-9.42142 -15.8921,-20.430166 -19.91689,-31.161532 -0.42449,-1.13181 -0.96526,-2.542898 -1.20169,-3.135751 -0.83147,-2.084864 -1.5928,-4.674524 -2.50437,-8.518622 -0.37782,-1.593354 -0.45799,-2.260407 -0.30994,-2.579352 0.17645,-0.380151 0.92097,-0.938511 5.11603,-3.836808 0.54905,-0.379328 3.8284,-2.655237 7.28744,-5.057575 3.45904,-2.402339 10.69159,-7.249486 16.07232,-10.771425 12.36542,-8.093787 11.10273,-7.294993 20.46475,-12.946461 1.37263,-0.828602 4.92152,-2.985862 7.88641,-4.793917 5.5145,-3.362839 15.72018,-9.164007 20.36492,-11.575934 1.42754,-0.741296 3.31429,-1.729232 4.19278,-2.195412 1.60528,-0.851863 12.0265,-5.927094 12.1704,-5.927094 0.0423,0 1.09481,-0.481419 2.33883,-1.0698208 2.75924,-1.3050665 11.46926,-4.7748855 14.34107,-5.713073 4.30579,-1.4066492 9.62465,-2.8965977 11.48023,-3.21590739 0.65886,-0.11337702 1.78193,-0.3525604 2.4957,-0.53151775 0.9754,-0.24455728 2.24004,-0.32804079 5.09123,-0.33609967059 4.21901,-0.0119158594 5.14142,0.16731783059 8.26015,1.60509531059 3.50063,1.6138381 5.71398,5.1136544 6.25513,9.8908603 0.5417,4.78209 -0.48277,11.302775 -2.93407,18.674935 -0.14335,0.431166 -0.5095,1.621771 -0.81364,2.64579 -0.56728,1.910026 -4.36364,11.414646 -5.67534,14.208875 -2.57632,5.488134 -5.0375,10.568953 -5.88604,12.151038 -0.57813,1.077915 -1.88703,3.547319 -2.90867,5.487565 -1.74833,3.32037 -2.97546,5.567998 -4.28001,7.83938 -5.45207,9.492724 -5.43288,9.460915 -13.82369,22.930184 -2.08163,3.341535 -4.34497,6.987139 -5.02963,8.101329 -0.68466,1.11419 -2.55506,3.98047 -4.15644,6.3695 -1.60139,2.38903 -4.61907,6.90128 -6.70597,10.02723 -5.7979,8.68462 -16.72633,24.095 -17.30152,24.39717 -0.46212,0.24278 -0.31007,0.26481 -1.50293,-0.21768 z M 49.361311,79.216535 c -0.492749,-1.363209 -1.697402,-4.936359 -2.428233,-7.20243 -0.191203,-0.592853 -0.908357,-3.018161 -1.593679,-5.389573 -1.198593,-4.147482 -1.48746,-5.25648 -2.603515,-9.995208 -0.279255,-1.185706 -0.593238,-2.465191 -0.69774,-2.843284 -0.236479,-0.85559 -1.119971,-5.634476 -1.285979,-6.95594 -0.06771,-0.538958 -0.256261,-1.77366 -0.419014,-2.743783 -0.876115,-5.2223 -0.946332,-5.998595 -1.028165,-11.3671 -0.07836,-5.140949 -0.05266,-5.667064 0.407019,-8.32934 0.665108,-3.852075 1.263541,-5.696651 2.599665,-8.013044 2.17132,-3.764343 5.42708,-5.856861 9.766791,-6.277234 2.233351,-0.2163376 6.301292,0.02828 7.725764,0.464567 0.494149,0.151351 1.212911,0.337103 1.597249,0.412785 3.123405,0.615046 12.08996,4.29234 15.40131,6.316268 0.698485,0.426921 3.1118,1.816235 5.362922,3.087368 7.09211,4.004674 17.143187,11.006465 25.751714,17.939181 3.49655,2.815865 3.68808,2.998954 3.53813,3.382476 -0.0809,0.207019 -1.01291,0.294388 -4.16519,0.390421 -4.29047,0.130721 -9.075814,0.725201 -11.997266,1.490383 -0.851034,0.222894 -2.198713,0.572922 -2.994841,0.777824 -0.796129,0.204921 -1.67212,0.466697 -1.946647,0.58176 -0.274527,0.115043 -1.577283,0.614686 -2.895013,1.110291 -3.136174,1.179533 -7.983774,3.669908 -10.981085,5.641335 -4.366479,2.871957 -9.595186,7.22587 -12.335584,10.271743 -5.74379,6.384057 -8.678522,10.24307 -11.540435,15.175019 -1.729467,2.980415 -2.095875,3.496403 -2.482785,3.496403 -0.132989,0 -0.472915,-0.6394 -0.755393,-1.420888 z"
       id="path423" />
  </g>
</svg>
