<?xml version="1.0" encoding="UTF-8" standalone="no"?>
<!-- Created with Inkscape (http://www.inkscape.org/) -->

<svg
   version="1.1"
   id="svg535"
   width="400"
   height="400"
   viewBox="0 0 400 400"
   sodipodi:docname="bsdvampire2.svg"
   inkscape:version="1.1 (c68e22c387, 2021-05-23)"
   xmlns:inkscape="http://www.inkscape.org/namespaces/inkscape"
   xmlns:sodipodi="http://sodipodi.sourceforge.net/DTD/sodipodi-0.dtd"
   xmlns="http://www.w3.org/2000/svg"
   xmlns:svg="http://www.w3.org/2000/svg">
  <defs
     id="defs539" />
  <sodipodi:namedview
     id="namedview537"
     pagecolor="#ffffff"
     bordercolor="#666666"
     borderopacity="1.0"
     inkscape:pageshadow="2"
     inkscape:pageopacity="0.0"
     inkscape:pagecheckerboard="0"
     showgrid="false"
     width="400px"
     inkscape:zoom="0.21201657"
     inkscape:cx="40.091205"
     inkscape:cy="1448"
     inkscape:window-width="1600"
     inkscape:window-height="822"
     inkscape:window-x="-8"
     inkscape:window-y="-8"
     inkscape:window-maximized="1"
     inkscape:current-layer="g541" />
  <g
     inkscape:groupmode="layer"
     inkscape:label="Image"
     id="g541">
    <path
       style="fill:#020202;stroke-width:0.197817"
       d="m 174.26039,399.89874 c -1.45858,-0.0888 -2.79048,-0.21362 -2.95978,-0.27739 -0.16928,-0.0638 -1.72593,-0.20428 -3.4592,-0.31228 -1.73327,-0.10801 -3.60519,-0.28083 -4.15982,-0.38407 -0.55464,-0.10324 -1.98264,-0.28223 -3.17333,-0.39772 -3.63411,-0.35251 -12.60607,-1.93612 -17.83881,-3.14873 -0.93345,-0.2163 -2.32613,-0.52869 -3.09484,-0.69422 -0.76872,-0.16552 -2.47588,-0.60338 -3.79368,-0.973 -1.3178,-0.36962 -3.06988,-0.86148 -3.89351,-1.09297 -2.60626,-0.73258 -10.39398,-3.30464 -12.72879,-4.20399 -1.23544,-0.47585 -3.25707,-1.25706 -4.49251,-1.73598 -7.42522,-2.87841 -16.781375,-7.46647 -25.355052,-12.43359 -2.72591,-1.57922 -8.181216,-5.09567 -11.53346,-7.43435 -12.15186,-8.47764 -23.631824,-18.74303 -33.5772,-30.02473 -4.144213,-4.70104 -10.496645,-12.96278 -13.785604,-17.92901 -3.100054,-4.68104 -3.733236,-5.68428 -5.81337,-9.21126 C 18.615391,299.49588 13.116436,287.5451 9.5416146,276.9161 c -1.3267087,-3.94468 -1.736326,-5.24262 -2.6446919,-8.38034 -0.2259235,-0.78039 -0.535268,-1.81573 -0.6874344,-2.30079 -0.2558933,-0.81568 -0.4954542,-1.761 -1.5147951,-5.97752 -0.992386,-4.10504 -1.333817,-5.7938 -2.0802728,-10.28917 -0.1521264,-0.91622 -0.3660898,-2.06273 -0.4754675,-2.54779 -0.1093777,-0.48506 -0.2566521,-1.45518 -0.3272544,-2.15582 -0.070602,-0.70065 -0.2584093,-2.15583 -0.4173644,-3.23374 -1.10451902,-7.49046 -1.62131766,-19.07814 -1.3001929,-29.15264 0.18696837,-5.86536 0.73028282,-13.01249 1.21795,-16.02171 0.1135507,-0.70064 0.3333444,-2.28811 0.4884659,-3.52771 0.1551014,-1.2396 0.5139632,-3.48851 0.7974707,-4.99759 0.2834874,-1.50908 0.6022762,-3.31703 0.7083992,-4.01768 0.1061231,-0.70064 0.3224028,-1.80305 0.4806189,-2.4498 0.1582163,-0.64675 0.4679801,-1.92554 0.6883926,-2.84177 1.0884458,-4.52488 1.5638137,-6.31429 2.7333843,-10.28917 2.4360597,-8.27913 4.7952672,-14.61073 8.6169772,-23.12613 9.560725,-21.30278 24.087951,-41.45472 41.590641,-57.693863 1.814669,-1.683681 4.285549,-3.894304 5.490848,-4.912519 1.205299,-1.018217 2.775476,-2.3485 3.489288,-2.956168 7.67326,-6.532327 22.1117,-16.024151 31.747084,-20.870545 7.051689,-3.546843 14.094989,-6.752598 17.670549,-8.042744 0.98835,-0.356624 2.38103,-0.881782 3.09484,-1.167024 1.51677,-0.606107 2.06927,-0.798301 6.98835,-2.431008 4.12279,-1.368406 11.42714,-3.448489 14.47588,-4.12234 1.09816,-0.242726 2.67054,-0.597437 3.49417,-0.788244 6.79352,-1.573848 18.0462,-3.251647 25.05824,-3.73624 1.64725,-0.113839 3.89351,-0.287901 4.99168,-0.38681 2.61763,-0.235754 17.097,-0.233704 20.16638,0.0029 1.31781,0.101566 4.19725,0.31496 6.39874,0.474211 2.20151,0.159252 4.40284,0.375107 4.89184,0.479679 0.48903,0.104573 1.51807,0.249544 2.28679,0.322162 3.19549,0.301855 13.9349,2.135817 16.67221,2.847099 0.38436,0.09987 1.68719,0.405593 2.89518,0.679373 2.88803,0.65455 5.11471,1.216493 6.58902,1.662853 0.6589,0.199488 1.87188,0.555305 2.6955,0.790705 6.47503,1.850604 18.53647,6.191277 19.63923,7.067759 0.56799,0.451461 0.18214,0.889672 -0.93193,1.058307 -2.16563,0.327814 -4.6891,1.518899 -6.15009,2.90286 -3.5259,3.339963 -4.80549,8.494893 -3.86252,15.560533 0.36196,2.712069 0.48413,3.16589 2.31135,8.584342 1.14633,3.399285 1.81751,4.968492 3.85607,9.01527 1.3575,2.694781 2.99397,5.715212 3.63664,6.712085 4.31635,6.695327 5.23344,8.063867 6.433,9.599517 5.58238,7.14652 7.26415,9.14156 11.51854,13.66395 2.64166,2.80808 5.87124,6.07573 7.17685,7.26143 1.30564,1.1857 3.59183,3.26494 5.08053,4.62052 2.52741,2.30148 5.49897,4.65096 11.62013,9.18751 1.3883,1.02889 2.78099,2.01497 3.09486,2.19127 0.31388,0.17631 2.36768,1.44574 4.56404,2.82092 6.04509,3.785 12.28804,6.76892 18.36941,8.77995 6.44967,2.13284 7.70572,2.36992 12.579,2.37437 3.1763,0.003 4.25212,-0.0658 5.25818,-0.33582 3.15391,-0.84651 5.97553,-2.58487 7.49636,-4.61844 1.0587,-1.41565 1.99847,-3.60299 2.4136,-5.61785 0.53557,-2.59932 0.82103,-2.81978 1.58584,-1.2249 1.03579,2.16002 2.78834,6.19967 3.46477,7.98635 0.38769,1.02402 0.92445,2.43511 1.19285,3.13575 0.76268,1.99114 2.94423,8.33769 3.53673,10.28917 0.29454,0.97012 0.62365,1.9754 0.73131,2.23394 0.10766,0.25856 0.31811,0.96411 0.46771,1.56787 0.14957,0.60379 0.69135,2.68526 1.20396,4.62551 1.00703,3.81177 1.60157,6.37528 1.90902,8.23133 0.10713,0.64675 0.32406,1.70506 0.48204,2.35181 0.75293,3.08222 1.75088,9.94463 2.39406,16.46266 1.10834,11.2323 0.99489,25.68891 -0.29147,37.13899 -0.22402,1.99414 -0.44672,3.758 -0.4949,3.91969 -0.0482,0.16168 -0.18137,1.08771 -0.29601,2.05783 -0.11468,0.97012 -0.38751,2.71193 -0.6063,3.87069 -0.21881,1.15875 -0.58256,3.099 -0.80833,4.31165 -0.4128,2.2173 -0.97956,4.81094 -1.4882,6.81045 -0.15078,0.59285 -0.42471,1.73936 -0.60865,2.54779 -0.5929,2.60549 -2.85593,10.17625 -4.27659,14.30684 -1.28127,3.72544 -4.60298,12.14049 -5.68605,14.40485 -0.25779,0.53895 -0.89056,1.90595 -1.40613,3.03776 -0.91668,2.01223 -4.142,8.39838 -5.33784,10.56891 -3.16275,5.74045 -8.25098,13.70886 -12.06547,18.89501 -12.27548,16.68968 -26.63656,30.76876 -43.27274,42.423 -3.27567,2.29473 -4.76597,3.2739 -9.35059,6.14355 -2.1477,1.34429 -8.5321,4.95821 -10.93917,6.19212 -2.91499,1.49429 -7.93532,3.97026 -8.05021,3.97026 -0.0524,0 -1.11526,0.47302 -2.36196,1.05113 -3.17916,1.47429 -5.5943,2.45663 -11.55123,4.69845 -3.18355,1.19808 -9.66094,3.32806 -12.27953,4.03794 -3.12559,0.8473 -4.40576,1.19938 -5.39101,1.48275 -0.54909,0.15793 -2.03162,0.51403 -3.29451,0.79139 -1.2629,0.27737 -3.01498,0.6731 -3.89351,0.87945 -1.44176,0.33859 -2.62892,0.57103 -7.48753,1.46593 -2.53064,0.46609 -6.38857,1.0401 -8.48585,1.26253 -1.09817,0.1165 -2.49085,0.29684 -3.09484,0.40082 -0.604,0.10396 -2.49085,0.27985 -4.19302,0.39082 -1.70215,0.11102 -3.58901,0.29117 -4.193,0.40034 -1.40899,0.25471 -18.63261,0.40394 -22.11954,0.19166 z m -16.6159,-28.51301 c 4.70226,-0.38668 6.28193,-0.58105 10.58236,-1.3022 4.57807,-0.76768 11.67452,-2.45758 12.01669,-2.86154 0.14456,-0.17066 1.6189,-4.02315 3.2763,-8.56107 1.8721,-5.12583 3.1199,-8.27112 3.29451,-8.30453 0.15458,-0.0296 2.51441,2.28547 5.24406,5.14458 2.72965,2.85909 5.10124,5.19835 5.2702,5.19835 0.72643,0 7.4351,-3.81024 11.23101,-6.37876 7.47884,-5.06055 13.04466,-10.08295 17.69062,-15.96343 11.64441,-14.7385 19.25391,-28.40429 24.33588,-43.70445 1.77037,-5.32998 3.77513,-13.11987 3.45687,-13.43226 -0.0677,-0.0665 -1.18692,0.57793 -2.48711,1.432 -3.34494,2.19721 -5.10663,3.21593 -8.75333,5.0618 -7.67547,3.88511 -15.75245,6.63644 -24.64335,8.39446 -1.91325,0.37833 -3.5511,0.80079 -3.63969,0.93882 -0.0886,0.13803 -2.02327,4.24167 -4.29931,9.11924 -2.27605,4.87756 -4.23778,8.86827 -4.3594,8.86827 -0.12163,0 -2.76391,-4.09464 -5.87171,-9.0992 l -5.65054,-9.09918 -2.32375,-0.51864 c -13.51775,-3.01696 -24.40418,-8.12988 -49.44519,-23.22237 -16.73045,-10.08365 -25.22811,-14.70241 -35.44092,-19.26327 -7.893003,-3.5249 -18.511865,-7.12646 -27.454245,-9.31154 -6.716466,-1.64121 -12.561078,-2.7575 -13.000617,-2.48308 -0.166653,0.10404 -2.099492,3.49641 -4.295201,7.53859 -2.195708,4.04217 -4.107693,7.4648 -4.248856,7.60585 -0.251098,0.25088 -0.777417,-0.42139 -12.227401,-15.6178 -0.344525,-0.45727 -0.671539,-0.10607 -2.700978,2.90048 -4.064304,6.02124 -6.594988,12.8058 -7.681717,20.59421 -0.416385,2.98426 -0.473929,10.2348 -0.106521,13.4249 2.774495,24.09061 18.045655,48.57697 42.168331,67.61435 2.483242,1.95975 5.595131,4.20476 5.83614,4.21037 0.08204,0.003 1.17919,-1.5399 2.438101,-3.42625 1.258914,-1.88634 2.404763,-3.42736 2.546339,-3.4245 0.141571,0.003 2.863046,3.85133 6.047722,8.5521 l 5.790313,8.54692 2.99504,1.42824 c 8.23798,3.92854 18.82867,7.65871 25.25794,8.8962 4.31259,0.83007 7.0873,0.97924 16.57237,0.89087 5.55381,-0.0517 10.27015,-0.19666 12.57904,-0.38653 z m 47.57746,-119.62594 c 1.90688,-0.49932 4.50345,-1.67578 6.3316,-2.86871 5.15273,-3.36235 9.51461,-9.82661 11.25251,-16.67616 0.90942,-3.58425 1.02861,-4.67228 1.0178,-9.29245 -0.009,-4.00752 -0.0588,-4.63408 -0.54249,-6.87089 -1.35067,-6.24654 -4.16165,-11.69216 -8.02279,-15.54228 -11.12174,-11.08998 -27.41175,-7.60863 -34.86928,7.45192 -2.23913,4.52194 -3.18663,8.5611 -3.32662,14.18139 -0.10153,4.07549 0.1566,6.71883 0.95996,9.83041 2.71262,10.50667 9.99816,18.2443 18.88297,20.05476 1.97495,0.40244 6.28662,0.26348 8.31634,-0.26799 z M 36.845825,212.51121 c 8.022328,-2.10585 15.754014,-11.66 18.536687,-22.90604 1.041355,-4.20858 1.312918,-6.38355 1.309161,-10.48515 -0.0049,-5.31987 -0.739767,-8.98048 -2.562264,-12.76299 -1.18145,-2.45206 -2.214121,-3.88155 -3.957495,-5.47825 -4.168373,-3.81767 -9.416786,-4.37725 -15.023259,-1.60174 -6.891634,3.41171 -12.873644,11.93183 -15.362356,21.88043 -1.844845,7.37467 -1.726542,15.06163 0.319428,20.75546 2.306695,6.41946 6.307627,10.21327 11.624885,11.02311 1.379698,0.21014 3.305609,0.0502 5.115213,-0.42483 z M 328.85912,144.11226 c -0.54909,-0.22207 -1.40266,-0.56714 -1.89685,-0.76683 -0.49416,-0.19967 -2.42594,-0.94407 -4.29284,-1.65422 -4.59052,-1.74618 -13.61911,-6.14428 -17.77037,-8.65652 -6.71806,-4.06556 -6.89914,-4.18903 -13.97672,-9.52883 -2.15352,-1.62479 -8.20319,-7.23507 -10.9325,-10.13851 -8.85637,-9.42141 -15.89298,-20.430138 -19.91799,-31.161485 -0.42452,-1.131808 -0.96532,-2.542891 -1.20176,-3.135743 -0.83151,-2.08488 -1.59288,-4.674519 -2.50451,-8.518629 -0.37785,-1.59335 -0.45801,-2.260383 -0.30996,-2.579327 0.17647,-0.380151 0.92103,-0.938509 5.11631,-3.836803 0.54909,-0.379325 3.82863,-2.655231 7.28787,-5.057566 3.45921,-2.402334 10.69216,-7.249469 16.0732,-10.77142 12.36609,-8.093769 11.10334,-7.29497 20.46589,-12.946428 1.37271,-0.828601 4.92178,-2.98586 7.88686,-4.793903 5.51479,-3.362839 15.72104,-9.163998 20.36604,-11.575921 1.42763,-0.741294 3.31448,-1.729229 4.19301,-2.195408 1.60538,-0.851861 12.02719,-5.927084 12.17107,-5.927084 0.0423,0 1.0949,-0.481417 2.33897,-1.0698184 2.75939,-1.3050641 11.4699,-4.7748772 14.34187,-5.713063 4.30604,-1.4066467 9.62517,-2.8965926 11.48088,-3.21590167 0.65889,-0.11337685 1.78202,-0.35255979 2.49584,-0.53151684 0.97544,-0.24455685 2.24015,-0.32804022 5.09151,-0.33609908 3.46734,-0.00979921 3.92247,0.02959164 5.29116,0.457915 2.68492,0.84022319 4.3393,1.72522279 5.66494,3.03038319 2.9499,2.9042771 4.0344,6.8751178 3.57897,13.1039838 -0.30779,4.209409 -1.1961,8.293755 -2.95323,13.578557 -0.14337,0.431165 -0.50953,1.621766 -0.81367,2.645786 -0.56732,1.910014 -4.36388,11.41462 -5.67566,14.20885 -2.57648,5.488128 -5.03779,10.56894 -5.88637,12.151021 -0.57816,1.077913 -1.88714,3.547314 -2.90883,5.487557 -1.74844,3.320362 -2.97563,5.567987 -4.28024,7.839366 -5.45237,9.492686 -5.43319,9.460878 -13.82448,22.930144 -2.08174,3.341529 -4.3452,6.987113 -5.02991,8.101303 -0.68469,1.1142 -2.55519,3.98047 -4.15666,6.36948 -1.60147,2.38905 -4.61933,6.90129 -6.70634,10.02723 -5.79821,8.68461 -16.72728,24.09496 -17.30248,24.39713 -0.46215,0.24278 -0.31009,0.26481 -1.50302,-0.21768 z M 49.364062,79.217108 c -0.492779,-1.363207 -1.697493,-4.93635 -2.428373,-7.202416 -0.191201,-0.592852 -0.908407,-3.018158 -1.593765,-5.389565 -1.19866,-4.147495 -1.48754,-5.256469 -2.603659,-9.995191 -0.279275,-1.185704 -0.593272,-2.465184 -0.697777,-2.843282 -0.236488,-0.855591 -1.120035,-5.634461 -1.286058,-6.95593 -0.06771,-0.538956 -0.256273,-1.773658 -0.419042,-2.743779 -0.87616,-5.222283 -0.946383,-5.998586 -1.028205,-11.36708 -0.07837,-5.140939 -0.05267,-5.667052 0.407043,-8.329325 0.665131,-3.852069 1.263613,-5.696641 2.599806,-8.01303 2.171441,-3.764336 5.427374,-5.856851 9.76734,-6.277223 2.233467,-0.2163372 6.301634,0.02828 7.726185,0.464566 0.494179,0.151351 1.21298,0.337103 1.597338,0.412784 3.123581,0.615045 12.090635,4.292333 15.402168,6.316257 0.698524,0.426921 3.111974,1.816233 5.363221,3.087363 7.092505,4.004667 17.144143,11.006439 25.753146,17.939139 3.49674,2.815873 3.68829,2.998965 3.53833,3.382475 -0.0809,0.207026 -1.01297,0.294389 -4.16542,0.390433 -4.29071,0.130723 -9.076323,0.725188 -11.997936,1.490371 -0.85108,0.222904 -2.198836,0.572929 -2.995007,0.777836 -0.796174,0.204906 -1.672214,0.46669 -1.946757,0.581744 -0.274542,0.115052 -1.577371,0.614686 -2.895174,1.110293 -6.702771,2.520815 -14.21612,7.300663 -20.254648,12.88561 -5.010089,4.633751 -11.226559,12.381709 -14.60419,18.202088 -1.729761,2.98074 -2.096191,3.496746 -2.483125,3.496746 -0.132998,0 -0.472954,-0.639397 -0.755441,-1.420884 z"
       id="path667" />
  </g>
</svg>
