<?xml version="1.0" encoding="UTF-8" standalone="no"?>
<!-- Created with Inkscape (http://www.inkscape.org/) -->

<svg
   version="1.1"
   id="svg111"
   width="400"
   height="400"
   viewBox="0 0 400.00002 399.99999"
   sodipodi:docname="bsdwow.svg"
   inkscape:version="1.1 (c68e22c387, 2021-05-23)"
   xmlns:inkscape="http://www.inkscape.org/namespaces/inkscape"
   xmlns:sodipodi="http://sodipodi.sourceforge.net/DTD/sodipodi-0.dtd"
   xmlns="http://www.w3.org/2000/svg"
   xmlns:svg="http://www.w3.org/2000/svg">
  <defs
     id="defs115" />
  <sodipodi:namedview
     id="namedview113"
     pagecolor="#ffffff"
     bordercolor="#666666"
     borderopacity="1.0"
     inkscape:pageshadow="2"
     inkscape:pageopacity="0.0"
     inkscape:pagecheckerboard="0"
     showgrid="false"
     inkscape:zoom="1.6961326"
     inkscape:cx="166.26059"
     inkscape:cy="211.65798"
     inkscape:window-width="1600"
     inkscape:window-height="822"
     inkscape:window-x="-8"
     inkscape:window-y="-8"
     inkscape:window-maximized="1"
     inkscape:current-layer="g117"
     width="400px"
     units="px"
     inkscape:document-units="px" />
  <g
     inkscape:groupmode="layer"
     inkscape:label="Image"
     id="g117">
    <path
       style="fill:#020202;stroke-width:0.197812"
       d="m 174.25069,399.89876 c -1.45851,-0.0888 -2.79034,-0.21363 -2.95962,-0.27738 -0.16927,-0.0637 -1.72583,-0.20429 -3.45901,-0.3123 -1.73318,-0.10798 -3.60499,-0.28083 -4.1596,-0.38407 -0.5546,-0.1033 -1.98252,-0.28223 -3.17315,-0.39771 -3.6339,-0.35251 -12.60537,-1.93613 -17.83782,-3.14873 -0.93339,-0.2163 -2.32598,-0.52871 -3.09466,-0.69424 -0.76868,-0.1655 -2.47574,-0.60337 -3.79347,-0.973 -1.31773,-0.36963 -3.06971,-0.86148 -3.89329,-1.09296 -2.60611,-0.73258 -10.39341,-3.30465 -12.72808,-4.20398 -1.23538,-0.47588 -3.25689,-1.25709 -4.49226,-1.73601 -7.4248,-2.8784 -16.780445,-7.46648 -25.35365,-12.43361 -2.725755,-1.57924 -8.180748,-5.09566 -11.532814,-7.43436 -8.13893,-5.6784 -15.462404,-11.7111 -22.635459,-18.64591 -8.534508,-8.2511 -14.202325,-14.73608 -20.989992,-24.01634 -2.263206,-3.09432 -3.113368,-4.3321 -6.192146,-9.0153 -4.687731,-7.13063 -11.635344,-20.50176 -14.663976,-28.22176 -0.253731,-0.64675 -0.578667,-1.44048 -0.722105,-1.76386 -0.678421,-1.52956 -1.761455,-4.47513 -3.0265221,-8.23135 -1.3279323,-3.94289 -1.7361443,-5.23551 -2.646541,-8.38036 -0.2259044,-0.78038 -0.5352291,-1.81573 -0.6873835,-2.30079 -0.2558842,-0.81567 -0.4954196,-1.76101 -1.5147066,-5.97753 -0.9923427,-4.10505 -1.3337577,-5.79381 -2.0801613,-10.28919 -0.1521255,-0.91623 -0.3660754,-2.06274 -0.4754572,-2.5478 -0.1094251,-0.48506 -0.2566214,-1.45518 -0.3272201,-2.15583 -0.070541,-0.70064 -0.2584138,-2.15582 -0.4173477,-3.23374 -1.1044564,-7.49048 -1.62122625,-19.07818 -1.30010619,-29.15269 0.18694782,-5.86537 0.73022833,-13.01252 1.21787119,-16.02174 0.1134725,-0.70064 0.3333346,-2.28812 0.4884378,-3.52773 0.1551033,-1.2396 0.5139367,-3.48852 0.7974157,-4.9976 0.2834789,-1.50907 0.6022428,-3.31703 0.7083722,-4.01768 0.1061004,-0.70064 0.3223776,-1.80306 0.4805887,-2.44981 0.1582111,-0.64675 0.467955,-1.92554 0.6883519,-2.84177 1.0883824,-4.52489 1.5637239,-6.31432 2.7332283,-10.28919 C 16.248151,138.00846 33.682101,109.9421 57.411392,87.912294 68.759441,77.376996 80.188598,69.097864 94.14507,61.302882 c 5.788473,-3.232986 16.94486,-8.472221 21.66267,-10.173161 0.98831,-0.356321 2.3809,-0.881225 3.09468,-1.166472 1.51669,-0.606109 2.06915,-0.798303 6.98796,-2.431007 4.12257,-1.368414 11.4265,-3.448505 14.47506,-4.122354 1.09811,-0.242722 2.67041,-0.597439 3.49399,-0.788243 6.79315,-1.573846 18.0452,-3.251657 25.05685,-3.73625 1.64716,-0.113798 3.89329,-0.2879 4.99139,-0.386813 2.6175,-0.235755 17.09606,-0.233698 20.16527,0.0028 1.31773,0.101596 4.19701,0.314974 6.39838,0.47422 2.20139,0.159247 4.4026,0.375108 4.89157,0.479683 0.48901,0.104575 1.51799,0.249547 2.28667,0.322153 3.19532,0.301863 13.93411,2.135827 16.67127,2.847108 0.38435,0.09989 1.6871,0.4056 2.89503,0.679382 2.88785,0.654552 5.11443,1.21649 6.58865,1.662856 0.65886,0.199487 1.87177,0.555297 2.69535,0.790697 6.47467,1.850609 18.53543,6.191293 19.63814,7.067779 0.56795,0.451461 0.18212,0.889668 -0.93188,1.058308 -2.16552,0.327815 -4.68884,1.518905 -6.14975,2.902856 -3.5257,3.339988 -4.80522,8.494913 -3.8623,15.560549 0.36206,2.712976 0.48459,3.168012 2.31193,8.584358 1.11147,3.294395 1.84812,5.034725 3.69161,8.721312 2.32235,4.644264 3.13377,6.029493 7.02565,11.994147 1.92126,2.94448 3.73705,5.36138 8.71176,11.59568 2.17623,2.72724 10.30397,11.31693 13.19235,13.94215 1.30402,1.18517 3.58884,3.264 5.07744,4.61958 2.52728,2.30149 5.49866,4.65097 11.6195,9.18752 1.38821,1.0289 2.78081,2.01498 3.09468,2.19128 0.31384,0.17632 2.36755,1.44575 4.56377,2.82093 6.04477,3.78499 12.28738,6.76893 18.3684,8.77996 6.44931,2.13283 7.70531,2.36992 12.5783,2.37436 3.17612,0.003 4.25189,-0.0658 5.25788,-0.33582 3.15374,-0.84651 5.97521,-2.58487 7.49594,-4.61845 1.05866,-1.41565 1.99836,-3.60298 2.41348,-5.61783 0.53555,-2.59934 0.82097,-2.8198 1.58574,-1.22491 1.03572,2.16002 2.78819,6.19967 3.46459,7.98635 0.38767,1.02403 0.9244,2.43511 1.19276,3.13576 0.76266,1.99114 2.94407,8.33771 3.53655,10.28919 0.29453,0.97012 0.62361,1.9754 0.73126,2.23394 0.10769,0.25856 0.31811,0.96411 0.46769,1.56788 0.14957,0.60379 0.69132,2.68526 1.2039,4.6255 1.00698,3.81178 1.60148,6.3753 1.90891,8.23136 0.10711,0.64675 0.32404,1.70507 0.48202,2.35181 0.75289,3.08223 1.75079,9.94465 2.39392,16.4627 1.10827,11.23232 0.99483,25.68897 -0.29144,37.13906 -0.22401,1.99415 -0.44671,3.75801 -0.49489,3.91969 -0.0481,0.16169 -0.18136,1.08771 -0.29601,2.05785 -0.11463,0.97012 -0.38747,2.71192 -0.60625,3.87069 -0.2188,1.15875 -0.58054,3.09899 -0.8039,4.31165 -0.22333,1.21266 -0.53636,2.73399 -0.6956,3.38074 -0.15925,0.64675 -0.51707,2.19013 -0.79517,3.42972 -1.03481,4.61254 -2.94171,11.18735 -4.88838,16.85468 -1.28409,3.73836 -4.61054,12.16556 -5.68599,14.40485 -0.25885,0.53897 -0.84578,1.81776 -1.30427,2.84177 -0.72784,1.62557 -1.46878,3.10595 -4.61034,9.21129 -2.63854,5.1278 -8.73024,14.79028 -12.89185,20.4487 -12.2748,16.68969 -26.63509,30.7688 -43.27032,42.42308 -3.27548,2.29473 -4.76572,3.27391 -9.35008,6.14355 -2.76614,1.7315 -8.85531,5.12778 -12.33616,6.8806 -1.92169,0.9677 -3.67366,1.86869 -3.89329,2.00224 -0.21962,0.13352 -1.11807,0.55452 -1.99655,0.93551 -0.8785,0.38097 -2.45078,1.08656 -3.49399,1.56796 -2.85578,1.3178 -5.48497,2.38203 -11.18074,4.52567 -3.18338,1.19809 -9.66041,3.32807 -12.27885,4.03794 -3.12542,0.84733 -4.40551,1.19941 -5.39071,1.48277 -0.54906,0.15793 -2.0315,0.51405 -3.29433,0.79141 -1.26283,0.27735 -3.0148,0.67311 -3.89329,0.87943 -1.44168,0.33859 -2.62878,0.57102 -7.48711,1.46593 -2.53049,0.46611 -6.38821,1.04011 -8.48537,1.26256 -1.09812,0.11649 -2.49072,0.29682 -3.09468,0.4008 -0.60395,0.10401 -2.4907,0.27984 -4.19278,0.39083 -1.70207,0.11096 -3.58881,0.29115 -4.19277,0.40034 -1.40891,0.25472 -18.63157,0.40394 -22.1183,0.19165 z m -16.91446,-26.46282 c 9.04094,-0.7249 16.61248,-2.6526 23.76106,-6.04958 10.61094,-5.04223 18.36268,-12.8452 22.95895,-23.11071 6.8999,-15.41046 5.21011,-35.20296 -4.67163,-54.71876 -5.74876,-11.35348 -13.21677,-21.25485 -23.50415,-31.16277 -13.83242,-13.32218 -31.11917,-23.94994 -49.19145,-30.24244 -7.36545,-2.56456 -15.11751,-4.36672 -23.35976,-5.43058 -4.239683,-0.54724 -13.136841,-0.74594 -17.720278,-0.39575 -14.816204,1.13199 -27.748055,6.48579 -36.637422,15.16794 -7.309453,7.13907 -11.911957,16.56766 -13.455979,27.56554 -0.463864,3.304 -0.462982,10.62592 0.0014,14.29991 4.341228,34.32293 34.338526,68.8939 74.200949,85.51437 10.99446,4.5841 23.42925,7.64087 34.74016,8.53994 2.97815,0.23674 10.05389,0.24932 12.87782,0.0229 z m 47.87429,-121.67641 c 1.90678,-0.49932 4.5032,-1.67578 6.33125,-2.86872 5.15245,-3.36235 9.51407,-9.82663 11.25188,-16.67619 0.90937,-3.58425 1.02855,-4.67229 1.01774,-9.29246 -0.009,-4.00753 -0.0588,-4.63409 -0.54246,-6.8709 -1.35059,-6.24656 -4.16142,-11.69219 -8.02235,-15.54233 -11.12111,-11.08999 -27.41022,-7.60864 -34.86733,7.45194 -2.23901,4.52196 -3.18646,8.56112 -3.32642,14.18142 -0.10148,4.0755 0.15657,6.71885 0.9599,9.83043 2.71081,10.50027 10.00303,18.24546 18.8819,20.0548 1.97485,0.40244 6.28628,0.26348 8.31589,-0.26799 z M 36.843764,212.51088 c 8.021121,-2.10565 15.737254,-11.63958 18.538667,-22.90609 1.006248,-4.04684 1.313983,-6.53947 1.306582,-10.58316 -0.01012,-5.22573 -0.756147,-8.91554 -2.562629,-12.66503 -1.181387,-2.45206 -2.213987,-3.88156 -3.957272,-5.47826 -4.168143,-3.81767 -9.416255,-4.37725 -15.02242,-1.60175 -6.891238,3.41173 -12.872918,11.93187 -15.361508,21.88048 -1.844731,7.37468 -1.726431,15.06167 0.319414,20.75551 2.306572,6.41947 6.307281,10.21329 11.624243,11.02313 1.379624,0.21014 3.305419,0.0502 5.114923,-0.42483 z M 328.84079,144.1118 c -0.54904,-0.22206 -1.40257,-0.567 -1.89672,-0.76649 -0.49415,-0.19951 -1.97659,-0.77113 -3.29433,-1.27024 -1.31773,-0.49914 -2.66541,-1.02345 -2.99484,-1.16515 -0.32943,-0.14176 -0.81976,-0.32332 -1.08963,-0.40355 -1.35023,-0.40151 -11.7113,-5.67457 -14.6832,-7.4727 -6.71183,-4.06097 -6.89752,-4.18755 -13.97593,-9.52831 -2.1534,-1.62478 -8.20273,-7.23508 -10.93188,-10.13854 -8.85589,-9.42142 -15.89211,-20.430159 -19.91689,-31.161525 -0.42449,-1.131822 -0.96527,-2.542903 -1.2017,-3.135759 -0.83147,-2.084874 -1.59279,-4.674516 -2.50436,-8.518633 -0.37784,-1.593342 -0.45799,-2.260395 -0.30994,-2.579341 0.17645,-0.380159 0.92096,-0.938493 5.11602,-3.836795 0.54905,-0.379322 3.8284,-2.655243 7.28745,-5.057573 3.45903,-2.402331 10.69158,-7.249474 16.07231,-10.771437 12.36603,-8.094189 11.09422,-7.2896 20.46475,-12.946539 1.37264,-0.828654 4.89074,-2.968681 7.81801,-4.755636 5.4383,-3.319795 15.77624,-9.195782 20.43333,-11.614125 1.42754,-0.741296 3.31429,-1.729233 4.19277,-2.195413 1.60528,-0.851862 12.0265,-5.927095 12.1704,-5.927095 0.0423,0 1.09482,-0.481418 2.33884,-1.0698204 2.75924,-1.3050674 11.46925,-4.7748866 14.34106,-5.7130746 4.30579,-1.4066484 9.62466,-2.8965979 11.48023,-3.21590773 0.65886,-0.11337234 1.78194,-0.35255958 2.4957,-0.5315176 0.9754,-0.24455789 2.24005,-0.32804051 5.09123,-0.33610002335 C 389.56248,-0.01139034 390.4849,0.1678472 393.60362,1.6056241 c 3.50064,1.6138389 5.71399,5.1136556 6.25513,9.8908619 0.5417,4.782091 -0.48277,11.302766 -2.93407,18.674933 -0.14339,0.43117 -0.5095,1.621764 -0.81363,2.64579 -0.56728,1.910018 -4.36365,11.414636 -5.67535,14.208873 -2.57632,5.488144 -5.0375,10.568955 -5.88605,12.151047 -0.57811,1.077917 -1.88702,3.547306 -2.90866,5.487565 -1.74832,3.320362 -2.97546,5.567986 -4.28,7.839363 -4.08234,7.107835 -5.89048,10.180368 -7.78501,13.228948 -1.23927,1.994147 -3.894,6.271505 -5.89942,9.505256 -2.00541,3.233737 -3.84445,6.188209 -4.08673,6.565479 -0.24228,0.37726 -0.87676,1.39149 -1.40997,2.25382 -0.5332,0.86233 -2.26788,3.50812 -3.85485,5.87953 -1.58697,2.37143 -4.59285,6.86927 -6.67976,9.99521 -5.79789,8.68464 -16.72633,24.09502 -17.30152,24.39718 -0.46212,0.24279 -0.31006,0.26482 -1.50294,-0.21768 z M 49.361303,79.216522 c -0.492746,-1.363206 -1.697405,-4.93635 -2.428226,-7.202421 -0.191212,-0.592856 -0.908358,-3.018173 -1.593689,-5.38957 -1.198588,-4.147486 -1.487459,-5.256478 -2.603508,-9.995202 -0.279258,-1.185712 -0.593238,-2.465188 -0.697748,-2.84329 -0.236471,-0.855585 -1.119967,-5.634463 -1.285969,-6.955939 -0.06765,-0.538951 -0.25626,-1.77366 -0.419025,-2.743781 -0.876109,-5.222293 -0.946332,-5.998602 -1.028162,-11.367101 -0.07835,-5.140946 -0.05262,-5.667071 0.407027,-8.329348 0.665108,-3.852071 1.263535,-5.696639 2.599663,-8.013033 1.275041,-2.210509 3.085297,-4.021102 4.814387,-4.815323 2.427127,-1.114839 3.002397,-1.285368 4.939684,-1.464301 2.278817,-0.2104762 6.323571,0.03359 7.73848,0.466955 0.494148,0.151352 1.212913,0.337104 1.597245,0.412785 3.123415,0.615047 12.089972,4.292342 15.401318,6.31627 0.698485,0.426921 3.111793,1.816235 5.362914,3.087373 7.092121,4.004662 17.143186,11.006447 25.751716,17.939158 3.49655,2.815877 3.68808,2.998975 3.53813,3.382483 -0.0809,0.207021 -1.01291,0.294385 -4.16519,0.390432 -4.29046,0.130683 -9.075808,0.725186 -11.997256,1.490371 -3.798598,0.994938 -4.518346,1.202612 -5.74012,1.656272 -8.653518,3.213176 -15.648037,7.500424 -22.349914,13.699253 -5.009805,4.633764 -11.225932,12.381723 -14.603366,18.202094 -1.729669,2.980756 -2.096077,3.496749 -2.482996,3.496749 -0.132987,0 -0.472913,-0.639397 -0.755395,-1.420886 z"
       id="path2158" />
  </g>
</svg>
